<svg width="125" height="112" viewBox="0 0 125 112" fill="none" xmlns="http://www.w3.org/2000/svg">
<path d="M67.9373 0H0V8.61536H65.8417C92.5081 8.61536 114.126 29.8302 114.126 56C114.126 82.1698 92.5081 103.385 65.8417 103.385H0V112H67.9373C99.4521 112 125 86.9279 125 56C125 25.0721 99.4521 0 67.9373 0Z" fill="white"/>
<path d="M65.9691 12.6452H14.7259V19.871H65.1086C85.0636 19.871 101.24 35.7464 101.24 55.3299C101.24 75.0023 84.9217 90.9144 64.8763 90.788L14.7259 90.4717V97.5484H65.9691C89.8594 97.5484 109.226 78.5421 109.226 55.0968C109.226 31.6514 89.8594 12.6452 65.9691 12.6452Z" fill="white"/>
<path d="M66.6205 25.2903H30.6412V30.7097H65.2228C79.1368 30.7097 90.4163 41.7791 90.4163 55.4339C90.4163 69.1509 79.0379 80.2458 65.0609 80.1577L30.6412 79.9406V84.9032H66.6205C83.3945 84.9032 96.9926 71.5584 96.9926 55.0968C96.9926 38.6351 83.3945 25.2903 66.6205 25.2903Z" fill="white"/>
<path d="M0 46.9677H9.20367V112H0V46.9677Z" fill="white"/>
<path d="M0 12.6452H23.9295V19.871H0V12.6452Z" fill="white"/>
<path d="M0 25.2903H36.8147V30.7097H0V25.2903Z" fill="white"/>
<path d="M34.9739 48.7742V84.9032H29.4517L29.4517 48.7742H34.9739Z" fill="white"/>
<path d="M14.7259 97.5484L14.7259 48.7742H22.0888L22.0888 97.5484H14.7259Z" fill="white"/>
</svg>
